<svg xmlns="http://www.w3.org/2000/svg" width="256" height="256"><path fill-opacity=".016" d="M0 128.004v128.004l128.25-.254 128.25-.254.254-127.75L257.008 0H0v128.004m.485.496c0 70.4.119 99.053.265 63.672.146-35.38.146-92.98 0-128C.604 29.153.485 58.1.485 128.5" fill="#1976D2" fill-rule="evenodd"/><path fill-opacity=".091" d="M83 81.038c0 .682-5.863.995-17.08.913-9.394-.068-17.179.027-17.3.212-.121.186-1.278 3.712-2.571 7.837-1.293 4.125-2.683 7.95-3.089 8.5-.405.55-2.209 5.725-4.007 11.5-1.798 5.775-3.607 10.726-4.02 11.002-1.296.868-3.931 12.569-3.973 17.642-.039 4.777-.063 4.813-1.469 2.225-1.242-2.285-1.992-2.598-5.71-2.383-2.355.136-2.819.055-1.031-.18s3.25-.789 3.25-1.232c0-.443-1.861-.465-4.135-.049-3.133.573-5.134.303-8.25-1.113-2.263-1.027-5.802-1.878-7.865-1.89C2.245 134.001 2 134.196 2 137v3h7.5c4.333 0 7.5.422 7.5 1 0 .578-3.167 1-7.5 1-5.919 0-7.5.309-7.5 1.465 0 .805.861 5.868 1.914 11.25 7.398 37.817 33.431 71.596 68.277 88.589C91.14 252.545 106.463 256 128.5 256c26.857 0 48.415-6.272 69.739-20.29 20.107-13.219 35.109-30.437 45.21-51.89 7.32-15.549 10.431-27.568 11.988-46.32.32-3.85.744-7.9.942-9 .199-1.1-.125-2.9-.719-4s-.955-2.609-.802-3.352c.232-1.137.044-1.137-1.18 0-.919.853-1.081 1.588-.439 1.99 2.178 1.367-.59 2.862-5.298 2.862H243v-8.278l6.25.486c3.438.267 5.514.307 4.615.088-.9-.219-1.901-1.725-2.225-3.347-.549-2.743-.888-2.939-4.865-2.807l-4.275.142 4 .716 4 .716-4.25.142c-2.898.097-4.25.585-4.25 1.535 0 1.674-2.151 2.607-6.008 2.607-1.865 0-3.006.603-3.313 1.75-.417 1.564-.537 1.537-1.123-.25-.565-1.719-1.369-1.95-5.732-1.645-3.467.243-5.383-.074-6.044-1-.724-1.013-.819-.893-.374.477.327 1.007.594 2.154.594 2.549s1.463.553 3.25.352c2.458-.276 3.557.139 4.508 1.701 1.114 1.828 1.02 2.066-.815 2.066-1.141 0-2.929.458-3.974 1.017-1.589.85-2.156.522-3.46-2-1.648-3.187-2.927-3.767-4.104-1.862-.427.689-.276.884.372.483 1.246-.77 4.243 3.052 4.183 5.335-.022.84-.771.177-1.665-1.473-.924-1.705-1.806-2.458-2.045-1.744-.232.691-.909.955-1.505.586-.7-.432-.847-.051-.415 1.076.369.96.677 2.046.685 2.414.009.367.41.045.893-.717.7-1.105 1.111-.947 2.035.779 1.075 2.007.962 2.128-1.561 1.67-1.496-.271-3.045-1.019-3.442-1.662-.591-.956-2.11 3.036-2.384 6.265-.096 1.137-1.556 2.225-1.556 1.16 0-2.802 6.044-17.79 7.071-17.536.655.162.933-.339.627-1.135-.3-.784.134-3.746.965-6.583 2.38-8.118 2.262-8.168-18.486-7.845l-17.541.272-3.624 11c-5.304 16.103-6.818 18.214-9.244 12.89-1.012-2.22-.919-2.806.619-3.931.994-.727 2.512-1.051 3.374-.72.977.375 1.315.193.897-.484-.369-.596-.176-1.249.428-1.45.604-.202 1.164-1.703 1.244-3.336.08-1.633.601-3.341 1.158-3.795.607-.496.412-.652-.488-.39-.842.245-1.395 1.375-1.262 2.576.131 1.177-.206 2.14-.75 2.14-.543 0-.988.627-.988 1.393 0 1.567-2.695 2.913-4.097 2.047-.505-.312-1.187.137-1.517.997-.33.859-1.243 1.563-2.028 1.563-1.152 0-1.206.416-.277 2.152.941 1.757.893 2.052-.26 1.61-1.958-.752-1.797 4.006.179 5.275 1.333.856 1.333 1.071 0 1.932-1.296.838-1.311 1.28-.108 3.25l1.391 2.281-2.177-1.937c-1.197-1.065-1.928-2.585-1.624-3.377.304-.792.101-1.983-.451-2.648-.691-.833-.044-4.287 2.085-11.123 1.699-5.453 3.423-10.365 3.831-10.915.408-.55 1.319-3.129 2.023-5.732.745-2.756 1.71-4.466 2.309-4.095.601.371.727.145.303-.541-.4-.647.04-3.529.978-6.404 2.203-6.75 2.503-7.211 3.631-5.585.638.921.722.554.262-1.143-.373-1.375-1.101-2.95-1.618-3.5-.559-.594-8.186-1-18.796-1h-17.856l-2.519 6.5c-1.385 3.575-3.513 9.65-4.727 13.5-1.215 3.85-2.688 7.9-3.274 9-.586 1.1-1.202 2.675-1.368 3.5-.167.825-1.539 4.875-3.049 9-1.835 5.012-3.327 7.597-4.496 7.794-1.192.2-1.75-.358-1.75-1.75 0-1.998-.506-2.044-22.5-2.044-19.333 0-22.5.211-22.5 1.5 0 1.227 1.713 1.5 9.417 1.5 5.433 0 9.631.434 9.925 1.025.279.564.394.451.254-.25-.173-.867-3.112-1.455-9.175-1.836-6.178-.389-2.388-.619 12.329-.75 12.375-.11 21.25.194 21.25.729 0 .505.273 1.63.607 2.5.526 1.37-.593 1.582-8.342 1.582C89.993 133 73 134.244 73 135.655c0 .74-.45 1.345-1 1.345s-.986 1.463-.968 3.25c.028 2.916.168 3.07 1.36 1.5C73.826 139.86 81 139.235 81 141c0 .55-1.773 1-3.941 1-4.504 0-5.617 1.088-4.07 3.979.595 1.112.852 2.021.572 2.021-1.459 0-3.561-6.547-3.561-11.093 0-6.269 3.556-18.799 5.553-19.566.789-.303 1.18-.964.867-1.47-.621-1.005 4.076-16.15 6.008-19.371.66-1.1 1.825-4.669 2.589-7.932 1.073-4.579 1.114-6.024.18-6.336-.665-.221-.955-.814-.644-1.317.311-.503.088-.915-.494-.915S83 80.467 83 81.038M189.046 83c-.413.275-1.552 2.975-2.531 6-.979 3.025-2.144 5.965-2.59 6.534-.446.568-.416 1.671.066 2.452.482.78.612 1.847.289 2.371-.324.524-.137.673.416.331.553-.342 9.622-.671 20.154-.731 10.533-.061 19.15-.488 19.15-.95 0-.462-.45-.99-.999-1.174-.589-.196-.159-2.545 1.047-5.718 3.372-8.872 3.962-8.544-16.411-9.115-9.812-.275-18.177-.275-18.591 0m-15.701 24.543c-.326.849-.311 1.824.031 2.167.343.343.624-.153.624-1.102 0-.949.45-1.448 1-1.108.55.34 1 .141 1-.441 0-1.621-1.986-1.259-2.655.484M171 111c0 .55.477 1 1.059 1s.781-.45.441-1-.816-1-1.059-1-.441.45-.441 1m47 2.059c0 .582.45.781 1 .441s1-.816 1-1.059-.45-.441-1-.441-1 .477-1 1.059m-137.969.441c0 .55.436 1.675.969 2.5.533.825.969 1.05.969.5s-.436-1.675-.969-2.5c-.533-.825-.969-1.05-.969-.5m41.085 1.168c-.064.643-.407 1.993-.763 3-.502 1.421-.369 1.576.594.688.682-.629 1.026-1.979.763-3s-.53-1.33-.594-.688m45.508 1.871c-.343.893-.595 2.15-.561 2.793.035.642.495.09 1.022-1.227.527-1.318.779-2.574.56-2.793-.219-.219-.679.333-1.021 1.227m-87.896.144c-.26.45.429 1.717 1.529 2.817l2.002 2-1.265-2.5c-1.623-3.209-1.703-3.29-2.266-2.317M76.5 120c.34.55 1.068 1 1.618 1s.722-.45.382-1c-.34-.55-1.068-1-1.618-1s-.722.45-.382 1m45.658 2c0 1.375.227 1.938.504 1.25.278-.687.278-1.812 0-2.5-.277-.687-.504-.125-.504 1.25m-94.534 1.539c-.965 2.514-.681 3.163.498 1.136.584-1.004.851-2.036.593-2.293-.257-.258-.749.263-1.091 1.157M170 125.583c0 .871.534 1.406 1.188 1.188 1.854-.618 2.161-2.771.395-2.771-.87 0-1.583.713-1.583 1.583m-140 .976c0 .857.45 1.281 1 .941.55-.34 1-1.041 1-1.559s-.45-.941-1-.941-1 .702-1 1.559m89.638.941c.317.825.753 1.5.969 1.5.216 0 .393-.675.393-1.5s-.436-1.5-.969-1.5c-.532 0-.709.675-.393 1.5M1 129c0 .55.477 1 1.059 1s.781-.45.441-1-.816-1-1.059-1-.441.45-.441 1m165 .809c0 .995.661 2.682 1.468 3.75.808 1.067 1.451 2.841 1.43 3.941l-.039 2-.859-2c-.829-1.928-.862-1.921-.93.191-.139 4.337 1.805 3.223 3.305-1.894.842-2.873 1.327-5.428 1.078-5.677-.249-.249-.46.184-.468.963-.013 1.169-.193 1.155-1.031-.083-.752-1.111-.866-.723-.441 1.5l.573 3-1.404-3c-.772-1.65-1.215-3.338-.984-3.75.231-.412-.057-.75-.639-.75s-1.059.814-1.059 1.809M27.568 134c.745 3.918 1.141 4.624 2.071 3.695.351-.351-.121-2.114-1.05-3.917l-1.688-3.278.667 3.5m44.161-2.396c-.401.401-.715 1.667-.699 2.813.028 1.923.111 1.946 1.071.295 1.119-1.922.833-4.312-.372-3.108m87.938 1.063c-.367.366-.667 1.131-.667 1.7 0 .626.466.567 1.183-.15.651-.651.951-1.416.667-1.7-.284-.285-.817-.217-1.183.15M118.5 135c-.34.55-.141 1 .441 1s1.059-.45 1.059-1-.198-1-.441-1-.719.45-1.059 1m39.236 2.5c-.318 1.1-.88 3.125-1.249 4.5l-.672 2.5 1.65-2.252c.908-1.238 1.391-2.673 1.073-3.187-.328-.53.546-.732 2.011-.466 2.2.399 2.391.255 1.27-.952-.819-.883-1.557-1.042-1.948-.419-.378.602-.814.458-1.093-.361-.317-.928-.649-.725-1.042.637m-44.997 2.75c-.261.688-.257 2.721.009 4.519l.485 3.269 1.883-2.172c1.036-1.195 1.884-2.516 1.884-2.937 0-.421.311-1.575.69-2.564.614-1.599.514-1.636-.895-.332-.872.807-1.381 1.805-1.131 2.217.25.412.146 1.248-.23 1.857-.997 1.612-2.525-1.169-1.844-3.357.617-1.984-.122-2.418-.851-.5m-84.914 2.424c.426 2.093.678 2.345.969.97.217-1.021-.043-2.293-.576-2.826-.626-.626-.766.031-.393 1.856m134.842-2.007c-.367.366-.667 1.131-.667 1.7 0 .626.466.567 1.183-.15.651-.651.951-1.416.667-1.7-.284-.285-.817-.217-1.183.15m3.364.833c0 .55.436 1.675.969 2.5.533.825.969 1.05.969.5s-.436-1.675-.969-2.5c-.533-.825-.969-1.05-.969-.5M30 145.592c0 .876.97 2.789 2.156 4.25 1.565 1.929 1.941 2.11 1.372.658-.432-1.1-1.005-3.012-1.273-4.25-.557-2.566-2.255-3.062-2.255-.658m125.079.076c-.043.643-.338 1.993-.655 3-.547 1.741-.518 1.744.571.044.631-.983.925-2.333.655-3-.355-.875-.514-.887-.571-.044m-76.412 2.999c-.367.366-.667 1.131-.667 1.7 0 .626.466.567 1.183-.15.651-.651.951-1.416.667-1.7-.284-.285-.817-.217-1.183.15M109.5 149c-.34.55-.168 1 .382 1s1.278-.45 1.618-1c.34-.55.168-1-.382-1s-1.278.45-1.618 1m-5.5 2.583c-1.395.774-1.837 1.38-1 1.37.825-.009 2.374-.677 3.441-1.485 2.407-1.82.921-1.75-2.441.115M30 152c0 .55.477 1 1.059 1s.781-.45.441-1-.816-1-1.059-1-.441.45-.441 1m53 0c0 .55.648 1 1.441 1s1.719-.45 2.059-1c.34-.55-.309-1-1.441-1-1.132 0-2.059.45-2.059 1m119.5 1c-.375 1.183-.458 2.376-.183 2.651.275.275.808-.468 1.183-1.651s.458-2.376.183-2.651c-.275-.275-.808.468-1.183 1.651m-112.687-.317c.721.289 1.584.253 1.916-.079.332-.332-.258-.568-1.312-.525-1.165.048-1.402.285-.604.604m64.216.278c-.809.512-1.211 1.191-.893 1.509.319.318 1.148-.108 1.844-.946 1.443-1.738 1.166-1.902-.951-.563m-119.558 1.085c-.507.821-.376 1.013.374.549 1.049-.647 1.619.599 1.249 2.729-.079.454.279.563.796.244.516-.319 1.141-.015 1.388.676.246.691.694 1.031.995.756.301-.275-.48-1.786-1.737-3.358-1.658-2.076-2.498-2.513-3.065-1.596m127.61.803c-1.312 2.451-1.356 3.151-.198 3.151.911 0 2.335-4.116 1.658-4.792-.208-.209-.865.53-1.46 1.641m-12.345 3.407-1.765 3.244 2.015-2.361c1.714-2.009 2.63-4.155 1.764-4.133-.137.004-1.044 1.466-2.014 3.25m11.053 2.27a103.19 103.19 0 0 1-1.239 3.974c-.373 1.1.055.736.95-.81.895-1.545 1.452-3.334 1.239-3.974-.214-.641-.641-.276-.95.81M41.79 162.19c1.434 1.434 4.457 2.019 3.646.706a1.096 1.096 0 0 0-1.505-.353c-.512.316-.931.098-.931-.484S42.46 161 41.8 161c-.928 0-.93.27-.01 1.19m-4.29.81c-.34.55-.141 1 .441 1S39 163.55 39 163s-.198-1-.441-1-.719.45-1.059 1m100.5 6c-.901.582-1.025.975-.309.985.655.008 1.469-.435 1.809-.985.767-1.242.421-1.242-1.5 0m-70.731 2.693c.973.254 2.323.237 3-.037.677-.274-.119-.481-1.769-.461-1.65.02-2.204.244-1.231.498m92.295.6c.376.986.935 1.541 1.243 1.233.308-.307.001-1.114-.683-1.793-.988-.98-1.102-.865-.56.56m-70.373.454c6.98.171 18.68.172 26 .001 7.32-.171 1.609-.312-12.691-.312-14.3-.001-20.289.139-13.309.311m73.622-.064c.721.289 1.584.253 1.916-.079.332-.332-.258-.568-1.312-.525-1.165.048-1.402.285-.604.604" fill="#1976D2" fill-rule="evenodd"/><path fill-opacity=".623" d="M48.899 84.75c-1.076 2.814-6.165 17.167-13.03 36.75-2.513 7.166-3.859 12.768-3.863 16.072-.019 15.642 11.852 27.223 32.951 32.143 6.256 1.459 12.404 1.761 36.043 1.772 27.399.012 28.719-.075 34.162-2.276 5.236-2.116 12.683-8.395 15.117-12.745.51-.911 4.908-12.976 9.775-26.811 4.866-13.835 10.464-29.616 12.441-35.069 1.976-5.453 3.362-10.515 3.08-11.25-.4-1.044-4.33-1.336-17.985-1.336-9.803 0-17.726.412-18.052.938-.319.516-3.918 10.529-7.999 22.25-15.063 43.272-14.838 42.791-21.517 46.083-3.917 1.931-6.127 2.229-16.522 2.226-10.935-.002-12.399-.225-16.5-2.505-8.798-4.893-10.043-12.659-4.578-28.546 3.886-11.297 11.984-34.015 13.116-36.797.483-1.185.251-2.169-.642-2.735-.768-.486-8.945-.89-18.171-.899L49.95 82l-1.051 2.75m138.963 3c-1.138 2.612-2.134 6.1-2.215 7.75l-.147 3 17.608.272 17.608.273 2.142-5.875c2.557-7.014 2.659-8.758.56-9.563-.87-.334-8.761-.607-17.535-.607h-15.954l-2.067 4.75m-5.95 17.981c-.571 1.502-4.579 12.865-8.908 25.25-4.328 12.385-9.11 25.909-10.626 30.053-4.16 11.366-4.602 11.064 15.709 10.74l17.132-.274 7.769-22c4.273-12.1 9.565-27.031 11.76-33.181 2.833-7.937 3.68-11.491 2.921-12.25-.674-.674-7.284-1.069-17.894-1.069H182.95l-1.038 2.731" fill="#1976D2" fill-rule="evenodd"/><path fill-opacity=".442" d="M150.85 82.745c-10.509.316-10.658.355-11.298 2.906-.776 3.091.094 4.434 1.128 1.742.656-1.707.796-1.647 1.424.607.661 2.373.702 2.386.796.25.124-2.786 1.683-2.953 2.388-.255.287 1.097 1.352 2.243 2.367 2.545 1.015.303 4.834 2.105 8.488 4.005 3.653 1.9 7.268 3.455 8.032 3.455.764 0 1.48 1.107 1.592 2.461.233 2.812-11.459 37.639-16.043 47.789-3.069 6.795-4.304 8.007-5.36 5.257-.387-1.011-1.346-1.299-2.968-.891-1.323.332-2.396.156-2.396-.392 0-.547-2.475-1.303-5.501-1.681-3.025-.378-6.121-1.308-6.881-2.067-.759-.76-1.668-1.093-2.019-.741-1.502 1.501-4.485.814-5.022-1.157-.532-1.953-.715-1.89-3.037 1.036-3.943 4.967-14.222 7.832-25.485 7.103-11.827-.767-17.663-3.484-20.87-9.717-3.34-6.49-2.689-10.089 6.659-36.844C81.33 95.317 85 84.404 85 83.906a.901.901 0 0 0-.891-.906c-.49 0-3.171 6.412-5.959 14.25-9.356 26.309-11.596 31.735-13.1 31.743-1.128.005-1.183-.26-.25-1.193 1.889-1.889 1.401-2.942-.744-1.603-1.584.989-2.279.914-3.75-.408-.993-.891-3.831-2.404-6.306-3.36-2.475-.957-5.271-2.399-6.213-3.205-.942-.807-2.404-1.201-3.25-.877-.943.362-1.537.035-1.537-.847 0-.865-.596-1.209-1.496-.863-1.204.462-1.39-.081-.95-2.782.305-1.869-1.102.63-3.177 5.645-4.196 10.141-5.413 19.728-3.412 26.875 2.604 9.3 14.55 18.75 28.057 22.193 10.01 2.553 60.112 3.28 69.027 1.003 8.049-2.057 12.932-5.229 16.88-10.968 3.593-5.222 27.609-72.758 26.708-75.105-.438-1.144-2.058-1.448-6.856-1.286-3.454.117-11.073.357-16.931.533m38.629 2.505c-2.709 7.399-4.208 12.688-3.73 13.166.322.321 8.293.584 17.714.584h17.129l2.165-6.659c1.191-3.662 1.931-7.037 1.645-7.5-.889-1.438-34.39-1.046-34.923.409m5.234 18.497c-11.568.311-11.805.364-12.75 2.85-1.185 3.118-1.153 5.672.037 2.903.735-1.71.87-1.746.93-.25.038.963.523 1.75 1.077 1.75.553 0 1.984 1.125 3.18 2.5 1.195 1.375 2.539 2.5 2.986 2.5 1.376 0 5.814 4.268 9.606 9.239 2.155 2.825 3.89 4.297 4.293 3.644 1.127-1.822 2.119.798 1.071 2.826-.509.985-1.706 4.491-2.659 7.791-2.87 9.931-3.456 11.153-4.544 9.466-.759-1.176-.914-1.07-.785.534.089 1.1.09 2.9.002 4-.142 1.782-.44 1.674-2.74-1-2.517-2.926-2.565-2.939-1.953-.5.568 2.262.314 2.52-2.668 2.711-8.145.522-15.277.128-15.899-.878-.411-.664-.946-.254-1.356 1.038-.61 1.921-.832 1.981-2.215.598-1.082-1.082-1.904-1.234-2.774-.512-.68.564-1.478.784-1.774.488-.296-.296-.838.657-1.205 2.119-.366 1.461-1.585 4.611-2.708 6.999-1.123 2.389-1.75 4.814-1.394 5.39.409.662 6.834 1.047 17.481 1.047 15.105 0 16.904-.18 17.518-1.75.375-.963 5.629-15.88 11.674-33.15 8.578-24.506 10.701-31.582 9.673-32.234-.724-.46-3.342-.746-5.817-.636-2.475.11-9.804.343-16.287.517M203.5 126c.34.55.816 1 1.059 1s.441-.45.441-1-.477-1-1.059-1-.781.45-.441 1" fill="#1976D2" fill-rule="evenodd"/></svg>